<?xml version="1.0" encoding="utf-8"?>
<svg width="656px" height="148.03381px" viewBox="0 0 656 148.03381" version="1.1" xmlns:xlink="http://www.w3.org/1999/xlink" xmlns="http://www.w3.org/2000/svg">
  <g id="Group-3">
    <g id="Group-2">
      <g id="logo">
        <path d="M0 0L656 0L656 30.8333L0 30.8333L0 0Z" id="Rectangle-2" fill="#333333" fill-rule="evenodd" stroke="none" />
        <path d="M43.4936 148L64.3929 148L64.3929 43.1667L50.8084 43.1667L43.4936 39.0556L43.4936 48.3056C43.4936 48.3056 38.2688 56.2708 38.2688 62.6944C38.2688 69.1181 43.4936 74 43.4936 74C43.4936 74 31.2155 83.25 33.0442 96.6111C34.8729 109.972 50.8084 127.444 50.8084 127.444L43.4936 148ZM85.2923 148L64.3931 148L64.3931 43.1667L77.9776 43.1667L85.2923 39.0556L85.2923 48.3056C85.2923 48.3056 90.5171 56.2708 90.5171 62.6944C90.5171 69.1181 85.2923 74 85.2923 74C85.2923 74 97.5704 83.25 95.7418 96.6111C93.9131 109.972 77.9776 127.444 77.9776 127.444L85.2923 148Z" id="owl-logo" fill="#333333" fill-rule="evenodd" stroke="none" />
      </g>
      <g id="Group" transform="translate(47.6737 53.444443)">
        <path d="M0 6.16667C0 2.76091 3.27492 0 7.31474 0C11.3546 0 14.6295 2.76091 14.6295 6.16667C14.6295 9.57242 11.3546 12.3333 7.31474 12.3333C3.27492 12.3333 0 9.57242 0 6.16667Z" id="Oval" fill="#FFFFFF" fill-rule="evenodd" stroke="none" />
        <path d="M2.08994 6.16667C2.08994 3.89616 4.42916 2.05556 7.31475 2.05556C10.2003 2.05556 12.5396 3.89616 12.5396 6.16667C12.5396 8.43717 10.2003 10.2778 7.31475 10.2778C4.42916 10.2778 2.08994 8.43717 2.08994 6.16667Z" id="Oval-2" fill="#333333" fill-rule="evenodd" stroke="none" />
      </g>
      <g id="Group-Copy" transform="translate(66.483025 53.444443)">
        <path d="M0 6.16667C0 2.76091 3.27492 0 7.31474 0C11.3546 0 14.6295 2.76091 14.6295 6.16667C14.6295 9.57242 11.3546 12.3333 7.31474 12.3333C3.27492 12.3333 0 9.57242 0 6.16667Z" id="Oval" fill="#FFFFFF" fill-rule="evenodd" stroke="none" />
        <path d="M2.08994 6.16667C2.08994 3.89616 4.42916 2.05556 7.31475 2.05556C10.2003 2.05556 12.5396 3.89616 12.5396 6.16667C12.5396 8.43717 10.2003 10.2778 7.31475 10.2778C4.42916 10.2778 2.08994 8.43717 2.08994 6.16667Z" id="Oval-2" fill="#333333" fill-rule="evenodd" stroke="none" />
      </g>
    </g>
    <g id="oba" transform="translate(372 44)">
      <path d="M193.914 103.976L284 103.976L248.118 0.852264L229.032 0.852264L203.839 76.7038L221.398 76.7038L238.957 28.1247L259.57 85.2264L200.021 85.2264L193.914 103.976Z" id="Vector" fill="#333333" fill-rule="evenodd" stroke="none" />
      <path d="M41.2258 0C41.2258 0 21.7581 2.98292 11.4516 16.193C1.14516 29.4031 0 41.1253 0 52.8404C0 63.5559 1.14516 76.7038 11.4516 89.4877C21.7581 102.272 41.2258 103.976 41.2258 103.976L41.2258 85.2264C41.2258 85.2264 29.5833 83.948 23.6667 75.8515C17.75 67.755 17.5591 60.1081 17.5591 52.8404C17.5591 45.5385 17.75 38.9911 23.6667 30.6815C29.5833 22.3719 41.2258 19.6021 41.2258 19.6021L41.2258 0Z" id="Vector" fill="#333333" fill-rule="evenodd" stroke="none" />
      <path d="M50.3871 0C50.3871 0 69.8549 2.98292 80.1613 16.193C90.4678 29.4031 91.6129 41.1253 91.6129 52.8404C91.6129 63.5559 90.4678 76.7038 80.1613 89.4877C69.8549 102.272 50.3871 103.976 50.3871 103.976L50.3871 85.2264C50.3871 85.2264 62.0296 83.948 67.9463 75.8515C73.8629 67.755 74.0538 60.1081 74.0538 52.8404C74.0538 45.5385 73.8629 38.9911 67.9463 30.6815C62.0296 22.3719 50.3871 19.6021 50.3871 19.6021L50.3871 0Z" id="Vector-Copy" fill="#333333" fill-rule="evenodd" stroke="none" />
      <path d="M109.936 3.40906L164.14 3.40906C164.14 3.40906 172.729 6.81811 177.118 13.6362C181.508 20.4543 181.699 20.6674 181.699 30.6815C181.699 40.6956 174.065 51.1358 174.065 51.1358L181.699 59.6585C181.699 59.6585 187.425 70.5248 185.516 80.1128C183.608 89.7008 182.272 90.9792 175.591 98.0103C168.911 105.042 158.796 103.976 158.796 103.976L109.936 103.976L109.936 85.2264L162.613 85.2264C162.613 85.2264 168.985 80.0867 168.72 75.8515C168.431 71.2137 168.752 73.0907 167.194 69.0334C164.712 65.4113 158.796 63.0675 158.796 63.0675L109.936 63.0675L109.936 44.3177L156.505 44.3177C156.505 44.3177 160.704 41.4259 162.613 38.0169C164.522 34.6078 164.14 33.1057 164.14 30.6815C164.14 24.5026 156.505 19.6021 156.505 19.6021L109.936 19.6021L109.936 3.40906Z" id="Vector-2" fill="#333333" fill-rule="evenodd" stroke="none" />
    </g>
    <g id="YOG" fill="#F63C5B" transform="translate(111.00001 44)">
      <path d="M116.623 13.3672Q134.254 13.3672 144.811 25.1873Q155.368 37.0073 155.368 56.8853Q155.368 76.707 144.811 88.5271Q134.254 100.347 116.623 100.347Q98.9346 100.347 88.3499 88.5552Q77.7651 76.7632 77.7651 56.8853Q77.7651 37.0073 88.3499 25.1873Q98.9346 13.3672 116.623 13.3672ZM230.275 64.2412L230.275 86.7583Q226.513 88.9482 221.796 89.9871Q217.079 91.0259 211.071 91.0259Q195.685 91.0259 187.964 82.4346Q180.243 73.8433 180.243 56.8853Q180.243 39.8711 187.964 31.2798Q195.685 22.6885 211.071 22.6885Q218.876 22.6885 225.951 25.3838Q233.026 28.0791 239.315 33.4136L239.315 21.3408Q233.083 17.4102 225.698 15.3887Q218.314 13.3672 210.116 13.3672Q190.463 13.3672 179.373 24.8503Q168.283 36.3335 168.283 56.8853Q168.283 77.3809 179.373 88.864Q190.463 100.347 210.116 100.347Q219.101 100.347 227.018 97.9607Q234.936 95.5742 241.505 90.9136L241.505 54.9199L211.745 54.9199L211.745 64.2412L230.275 64.2412ZM0.836426 14.8833L13.0215 14.8833L36.2686 49.3608L59.3472 14.8833L71.5322 14.8833L41.8838 58.7944L41.8838 98.7188L30.4849 98.7188L30.4849 58.7944L0.836426 14.8833ZM116.623 22.5762Q104.269 22.5762 96.9973 31.7852Q89.7256 40.9941 89.7256 56.8853Q89.7256 72.7202 96.9973 81.9292Q104.269 91.1382 116.623 91.1382Q128.976 91.1382 136.192 81.9292Q143.407 72.7202 143.407 56.8853Q143.407 40.9941 136.192 31.7852Q128.976 22.5762 116.623 22.5762Z" />
    </g>
  </g>
</svg>